<svg xmlns="http://www.w3.org/2000/svg" viewBox="0 0 363.839 377.606"><defs><style>.a{fill:#fff4d3;}.b,.c,.d,.e,.j,.k,.y{fill:none;}.b{stroke:#ffd965;opacity:0.51;}.b,.d,.e,.j,.n,.y{stroke-linecap:round;}.b,.n{stroke-width:4px;}.d{stroke:#fff4d3;stroke-width:7px;}.e{stroke:#ffebb0;stroke-width:2px;}.f,.i,.q{fill:#e8eaee;}.g,.m,.u{fill:#3f88fb;}.g{stroke:#3f88fb;}.h,.n,.p,.r{fill:#ffc103;}.i,.x,.y{stroke:#000;}.j,.l,.m,.n,.o,.q,.r{stroke:#ffc103;}.k,.p{stroke:#f2b038;}.l{fill:#166ef8;}.o{fill:rgba(0,0,0,0.12);}.s{fill:#93bbfb;}.t{fill:#f2b038;}.aa,.v,.w{fill:#fff;}.v{stroke:#fff;}.aa,.z{stroke:none;}</style></defs><g transform="translate(0 3.606)"><g transform="translate(0.12 0.23)"><path class="a" d="M365.8,110.9c-7.333-13.071-7.862-26.211-4.434-38.63h14.759c-3.724,10.5-4,21.435,1.876,31.93,13.2,23.6,34.4,37.9,51.6,34.9,15.1-2.7,25.7-18.3,29.9-44a80.21,80.21,0,0,0,.788-22.83h13.851A96.179,96.179,0,0,1,473.1,97.3c-7,43.2-28.8,53.4-41.3,55.6a49.787,49.787,0,0,1-6.9.5C403.4,153.4,380.4,137.2,365.8,110.9Zm36.4,8.2c-8.344-9.674-14.481-27.778-10.371-46.83H406.5c-4.353,14.924-.229,30.059,6.5,37.83,1.7,2,5.2,5.3,9.1,4.5,5.5-1.1,11.4-9.6,15.7-22.6,3.9-11.7,2.9-16.9,1.8-18-.5-.5-2.5-.8-5.8.3C428.1,76,424,80,423,82c.9.5,2.9,1.2,7.1,1.6a7.025,7.025,0,0,1-1.2,14c-14.1-1.2-18.6-7.1-19.8-11.9-1.13-4.33.222-9.053,3.56-13.43h41.075c1.379,6.08.448,14.078-2.836,23.93-7.8,23.7-18.6,30.4-26.3,32a19.811,19.811,0,0,1-3.938.4C414.037,128.6,407.457,125.275,402.2,119.1Z" transform="translate(-251 -72)"/><path class="a" d="M424.2,197.771a7,7,0,0,1-1.2-9.8c.6-.7,55.4-71.4,19.6-103.5-18.684-16.649-41.216-23.631-56.6-17.86V52.037c19.816-4.853,44.887,3.2,65.9,21.933,45.6,40.8-15.3,119.3-17.9,122.6a7.163,7.163,0,0,1-5.5,2.7A7.031,7.031,0,0,1,424.2,197.771ZM386,170.641v-15.7a20.428,20.428,0,0,0,13.7,3.825c12.5-1,26.2-13.6,26.4-32.2.2-16.6-9.1-30.8-18.5-36.2-2.3-1.3-6.6-3.3-10-1.3-4.8,2.8-7.6,12.7-7.5,26.5.1,12.4,2.8,16.9,4.2,17.6.6.3,2.6,0,5.4-2.1,4.7-3.6,7.3-8.8,7.5-11-1-.2-3.1-.2-7.2.8a7.009,7.009,0,1,1-3.4-13.6c13.8-3.5,19.9.7,22.5,4.8,3.9,6,2.3,14.9-4.2,23.3-5.5,7.1-15.3,14.3-25,11.1a15.433,15.433,0,0,1-3.9-1.938V80.5a21.187,21.187,0,0,1,4.5-3.532c6.9-4,15.7-3.6,24.1,1.3,12.5,7.2,25.7,25.5,25.5,48.5-.3,23.7-17.9,44.3-39.3,46q-1.32.1-2.634.1A34.33,34.33,0,0,1,386,170.641Z" transform="translate(-386 0.23)"/><path class="b" d="M317.2,166.5c12.3,15.7-28.5,5.5-3.4-5.9,25.1-11.5,21.7,15.2,4.6,22.6-17,7.4-37.5-12.6-10.7-30.5s40.4,3.9,32.8,27.6-50,13-50,13"/><path class="b" d="M278.8,72.9c10.6-2.7-3.5,15.4-3.7.4s12.4-7.4,12.3,2.7-14.6,15.9-17.5-1.4c-3-17.3,10.9-19.3,21-10.2s-4.6,27.8-4.6,27.8"/><g transform="translate(210 -34)"><path class="c" d="M42.6,146.9s-.9,10.6,0,10.6"/><path class="c" d="M36.4,153.6l11.3-4.3"/><path class="c" d="M36.4,151.5H50.8"/><path class="c" d="M38.2,149.3l9,5.3"/></g><g transform="translate(217 68)"><path class="c" d="M42.6,146.9s-.9,10.6,0,10.6"/><path class="c" d="M36.4,153.6l11.3-4.3"/><path class="c" d="M36.4,151.5H50.8"/><path class="c" d="M38.2,149.3l9,5.3"/></g><g transform="translate(248.88 -147.23)"><path class="d" d="M122.133,146.894s-4.52,54.919,0,54.919" transform="translate(-53.219)"/><path class="d" d="M113.39,171.881l58.58-22.183" transform="translate(-77 9.903)"/><path class="d" d="M113.39,152.146h74.948" transform="translate(-77 18.547)"/><path class="d" d="M115.481,149.7,162,177.265" transform="translate(-69.615 9.903)"/></g><g transform="translate(205.88 16.77)"><path class="e" d="M120.62,146.894s-1.117,13.578,0,13.578" transform="translate(-76.189)"/><path class="e" d="M113.39,155.182l14.483-5.484" transform="translate(-77 0.338)"/><path class="e" d="M113.39,152.146h18.53" transform="translate(-77 0.632)"/><path class="e" d="M115.481,149.7l11.5,6.816" transform="translate(-76.748 0.338)"/></g></g><g transform="translate(-30 -58)"><path class="f" d="M-198.1,259.073s-21.605-3.769-27.887,7.119-17.171,36.435-5.863,42.3,27.64-1.675,36.435,8.376,28.9,6.282,38.948,0,30.153-25.547,47.324-21.359,51.512,10.47,64.494,2.932,19.683-23.871,10.47-30.153-33.085-27.64-40.623-16.333S-198.1,259.073-198.1,259.073Z" transform="translate(353 73.265)"/><path class="g" d="M-159.026,167.659C-212.568,179.522-219.3,269.614-200.064,334.7c60.916,35.909,109.329-21.8,109.329-21.8S-91.7,181.446-159.026,167.659Z" transform="translate(364.778 37.764)"/><path class="h" d="M-181.435,308.145c4.686-4.439-1.455-41.954-8.146-44.433s-8.625,9.905-8.625,9.905-11.838-7.4-13.071,6.905c-10.112-.493-8.841,9.322-6.166,10.6S-188.094,314.31-181.435,308.145Z" transform="translate(360.632 79.695)"/><path class="h" d="M39.631,45.687c4.686-4.439-1.223-31.468-6.461-41.947-6.039-9.4-16.67,1.2-12.629,6.837C16.127,8.292,9.476,5.651,9.789,18.065c-8.573-2.833-13.626,3.7-6.166,10.6S32.972,51.853,39.631,45.687Z" transform="matrix(0.407, 0.914, -0.914, 0.407, 273.452, 327.646)"/><path class="i" d="M-125.23,234.013l-58.537,10.945,2.886,14.107,58.672-10.58Z" transform="translate(376.214 66.829)"/><path class="i" d="M-183.223,255.367l-2.092-33.311,48.024-12.421,12.654,34.839Z" transform="translate(375.537 56.15)"/><path class="j" d="M-161.508,243.9s27.888-15.864,12.9,16.577c-24.852,52.171,6.172,40.531,5.982,59.5" transform="translate(385.965 69.463)"/><path class="k" d="M-174.964,299.224c21.722-8.679,86.888,0,86.888,0s3.225,23.714,2.466,34.717c-27.7-2.466-88.405-3.415-88.405-3.415S-174.395,309.848-174.964,299.224Z" transform="translate(380.071 93.704)"/><g class="l" transform="translate(220.873 309.451)"><circle class="z" cx="3.595" cy="3.595" r="3.595"/><circle class="c" cx="3.595" cy="3.595" r="3.095"/></g><g class="m" transform="translate(274.081 401.486)"><circle class="z" cx="6.471" cy="6.471" r="6.471"/><circle class="c" cx="6.471" cy="6.471" r="5.971"/></g><path class="n" d="M-165.3,309.9s38.635-2.051,46.29,0" transform="translate(384.304 99.672)"/><g class="o" transform="matrix(0.97, -0.242, 0.242, 0.97, 206.089, 281.764)"><ellipse class="z" cx="13.661" cy="9.347" rx="13.661" ry="9.347"/><ellipse class="c" cx="13.661" cy="9.347" rx="13.161" ry="8.847"/></g><g class="p" transform="translate(199.303 295.071)"><circle class="z" cx="3.595" cy="3.595" r="3.595"/><circle class="c" cx="3.595" cy="3.595" r="3.095"/></g><g class="p" transform="translate(233.816 289.319)"><circle class="z" cx="5.033" cy="5.033" r="5.033"/><circle class="c" cx="5.033" cy="5.033" r="4.533"/></g><path class="q" d="M-160.215,206.959l2.2,27.129s-4.686,3.206-6.905,0-4.439-27.129-4.439-27.129Z" transform="translate(382.527 54.978)"/><g class="r" transform="translate(202.179 241.864)"><circle class="z" cx="12.942" cy="12.942" r="12.942"/><circle class="c" cx="12.942" cy="12.942" r="12.442"/></g><path class="s" d="M-133.479,214.43c-3.655-1.544-10.3,14.165-9.327,18.727s7.542,5.907,16.132,6.081C-125.459,232.991-129.824,215.974-133.479,214.43Z" transform="translate(391.27 58.21)"/><path class="s" d="M-195.939,226.921c2.049-2.364,20.077,7.97,20.077,9.9s-9.587,16.693-18.385,21.205C-198.646,249.681-197.989,229.285-195.939,226.921Z" transform="translate(370.187 63.569)"/><path class="t" d="M167.552,363.272c4.05,1.723,4.653,11.8,1.723,13.958s-11.158-2.24-11.718-6.031S163.5,361.549,167.552,363.272Z"/><path class="t" d="M167.587,362.449c2.748,3.133,4.75,12.673,1.82,14.827s-9.472-.544-12.22-4.208S164.838,359.316,167.587,362.449Z" transform="translate(557.02 85.436) rotate(71)"/><g class="u" transform="translate(352.58 -1)"><path class="z" d="M -176.0030670166016 234.7516479492188 C -183.0492401123047 234.7517852783203 -189.4021453857422 231.4871215820313 -193.4327850341797 225.7947387695313 C -194.6146240234375 224.1256713867188 -195.5787353515625 222.2681427001953 -196.2983093261719 220.2737884521484 C -197.0396881103516 218.218994140625 -197.5244750976563 216.0091705322266 -197.7392120361328 213.7056427001953 C -198.1269226074219 209.5465850830078 -197.6486511230469 205.1232452392578 -196.3173065185547 200.5255126953125 C -200.5189666748047 201.3720245361328 -204.3386535644531 201.800537109375 -207.7001495361328 201.8009490966797 C -207.7009582519531 201.8009490966797 -207.7041473388672 201.8009490966797 -207.7049560546875 201.8009490966797 C -220.9644927978516 201.8017425537109 -225.3743286132813 195.2016143798828 -226.7407836914063 189.6644744873047 C -228.427978515625 182.8277435302734 -226.1823120117188 175.1498413085938 -224.6935424804688 171.1816253662109 C -223.6958770751953 168.5224304199219 -222.4391021728516 165.9222564697266 -221.1546630859375 163.8600769042969 C -220.5872802734375 162.9491271972656 -220.0396270751953 162.17529296875 -219.5140838623047 161.5412292480469 C -222.1872406005859 160.3607788085938 -224.5743408203125 158.9869689941406 -226.6324005126953 157.4428558349609 C -229.1309967041016 155.5682373046875 -231.1679534912109 153.4270172119141 -232.6866912841797 151.0787353515625 C -235.5486755371094 146.6535491943359 -236.5499114990234 141.5333557128906 -235.5821228027344 136.2717132568359 C -234.9748382568359 132.9700012207031 -233.6286163330078 129.7446746826172 -231.5808410644531 126.6853103637695 C -229.5455932617188 123.644645690918 -226.918212890625 120.9196472167969 -223.7716674804688 118.5860214233398 C -220.5189056396484 116.1736221313477 -216.8457946777344 114.2836685180664 -212.8544006347656 112.9686431884766 C -208.6150665283203 111.5719528198242 -204.1226043701172 110.8637619018555 -199.5017395019531 110.8637619018555 C -199.4098663330078 110.8637619018555 -199.3177185058594 110.8640518188477 -199.2254943847656 110.864616394043 C -200.0438995361328 106.3949890136719 -200.1502075195313 102.2835845947266 -199.5398559570313 98.62064361572266 C -198.8898315429688 94.71949768066406 -197.4370269775391 91.34107208251953 -195.2218170166016 88.57921600341797 C -193.1958770751953 86.05338287353516 -190.5912475585938 84.10733795166016 -187.4801635742188 82.79509735107422 C -184.5747680664063 81.56959533691406 -181.3602905273438 80.9482421875 -177.9259796142578 80.9482421875 C -173.4114074707031 80.9482421875 -168.8258666992188 82.03528594970703 -164.6651000976563 84.09188079833984 C -160.8063201904297 85.99920654296875 -157.4780426025391 88.67387390136719 -154.9552307128906 91.88186645507813 C -152.9685974121094 90.39387512207031 -150.8539886474609 89.23493957519531 -148.6509857177734 88.42838287353516 C -146.1436462402344 87.51042938232422 -143.5153656005859 87.04497528076172 -140.8391265869141 87.04497528076172 C -136.8449249267578 87.04497528076172 -132.7269744873047 88.10102844238281 -128.9304351806641 90.09897613525391 C -125.3552398681641 91.98040771484375 -122.1415023803711 94.64216613769531 -119.6365737915039 97.79645538330078 C -115.7682571411133 102.6676254272461 -113.9441299438477 108.2435073852539 -114.4729843139648 113.3940353393555 C -113.8371963500977 113.3472213745117 -113.2046508789063 113.3236694335938 -112.5793151855469 113.3236694335938 C -108.8989791870117 113.3236694335938 -105.350456237793 114.1267395019531 -102.0323333740234 115.7105484008789 C -98.94718933105469 117.1831665039063 -96.10345458984375 119.3076934814453 -93.58010101318359 122.025146484375 C -88.85562133789063 127.1130218505859 -85.49591064453125 134.036376953125 -84.11985778808594 141.5199127197266 C -83.47607421875 145.0210266113281 -83.29071807861328 148.5112609863281 -83.56890869140625 151.8936614990234 C -83.85945129394531 155.4261474609375 -84.64983367919922 158.7456207275391 -85.91807556152344 161.7598571777344 C -88.38251495361328 167.6170654296875 -92.57395172119141 172.1005554199219 -98.12503814697266 174.8549957275391 C -94.31494140625 177.9908142089844 -91.5323486328125 182.1626281738281 -90.01131439208984 187.0561676025391 C -88.36962127685547 192.3377838134766 -88.33538055419922 198.1434783935547 -89.91485595703125 203.4037628173828 C -91.29048156738281 207.9850006103516 -93.79467010498047 211.8774108886719 -97.15671539306641 214.6602172851563 C -98.95349884033203 216.1473999023438 -100.9763870239258 217.2992095947266 -103.1691665649414 218.0836486816406 C -105.4781951904297 218.90966796875 -107.9800720214844 219.3285522460938 -110.6052856445313 219.3286743164063 C -111.8409042358398 219.3287200927734 -113.1172256469727 219.2351989746094 -114.4128723144531 219.0501098632813 C -116.7760543823242 223.8019866943359 -119.8854370117188 227.4389953613281 -123.66650390625 229.8701934814453 C -125.4867172241211 231.0405426025391 -127.4624099731445 231.9255523681641 -129.5387115478516 232.5005493164063 C -131.45947265625 233.032470703125 -133.4746856689453 233.3021850585938 -135.5283813476563 233.3021850585938 C -137.9389038085938 233.3021850585938 -140.3628387451172 232.936767578125 -142.7328338623047 232.2160034179688 C -144.9196014404297 231.5509948730469 -147.0362701416016 230.5763092041016 -148.8540191650391 229.3973083496094 C -151.4326324462891 227.724853515625 -153.3155670166016 225.7445983886719 -154.3288116455078 223.6990509033203 C -157.2225799560547 227.0204010009766 -160.4245910644531 229.6463317871094 -163.8754272460938 231.5240936279297 C -165.8490447998047 232.5980529785156 -167.8963775634766 233.4170532226563 -169.9605712890625 233.9583892822266 C -171.9675750732422 234.4847106933594 -174.0005798339844 234.7516021728516 -176.0030670166016 234.7516479492188 Z"/><path class="aa" d="M -176.0030975341797 233.2516479492188 C -168.6051177978516 233.2514953613281 -160.4144592285156 229.374267578125 -153.6771697998047 220.5233917236328 C -153.4358215332031 225.7928619384766 -144.9297637939453 231.8022003173828 -135.5283813476563 231.8022003173828 C -128.1396789550781 231.8022003173828 -120.1977844238281 228.0899353027344 -115.2812805175781 217.3892974853516 C -113.6487808227539 217.6873931884766 -112.0901336669922 217.8287353515625 -110.605354309082 217.8286590576172 C -88.49501800537109 217.8276824951172 -82.99722290039063 186.4707336425781 -101.101676940918 174.5198211669922 C -72.94248962402344 163.8017883300781 -84.68769836425781 114.8236846923828 -112.5792999267578 114.8236846923828 C -113.7814788818359 114.8236846923828 -115.0148849487305 114.9148025512695 -116.2751541137695 115.1038436889648 C -113.4225616455078 102.8377532958984 -126.4696960449219 88.54498291015625 -140.839111328125 88.54498291015625 C -145.6742401123047 88.54498291015625 -150.660400390625 90.16414642333984 -155.2391204833984 94.02333831787109 C -160.3884735107422 86.55880737304688 -169.4358520507813 82.44823455810547 -177.9259796142578 82.44823455810547 C -190.5888824462891 82.44823455810547 -202.0088500976563 91.59878540039063 -197.3805847167969 112.4149627685547 C -198.0940704345703 112.3806228637695 -198.8012084960938 112.3637542724609 -199.5017242431641 112.3637542724609 C -231.8769073486328 112.3637542724609 -249.9883880615234 148.3988647460938 -216.767822265625 161.0473480224609 C -221.9706573486328 163.7809906005859 -238.422607421875 200.3046875 -207.7003326416016 200.3009490966797 C -203.9179534912109 200.3004913330078 -199.4159240722656 199.7463836669922 -194.0946197509766 198.5073852539063 C -201.3560028076172 219.1293334960938 -190.1227111816406 233.2519378662109 -176.0030975341797 233.2516479492188 M -176.0030212402344 236.2516479492188 C -176.0030517578125 236.2516479492188 -176.0030517578125 236.2516479492188 -176.0030517578125 236.2516479492188 C -179.7400512695313 236.251708984375 -183.2784576416016 235.4085235595703 -186.5199737548828 233.7454681396484 C -189.7725067138672 232.0767669677734 -192.5102081298828 229.6933898925781 -194.656982421875 226.6615600585938 C -195.9169006347656 224.8822174072266 -196.94384765625 222.9043426513672 -197.7092742919922 220.7828979492188 C -198.4936828613281 218.60888671875 -199.0062561035156 216.2745971679688 -199.2327575683594 213.8448638916016 C -199.5719451904297 210.2061462402344 -199.2799224853516 206.3839721679688 -198.3641662597656 202.4320526123047 C -201.7528839111328 203.0091094970703 -204.8790283203125 203.3006134033203 -207.699951171875 203.3009643554688 C -207.7013854980469 203.3009643554688 -207.7034454345703 203.3009643554688 -207.7048645019531 203.3009643554688 C -213.5468139648438 203.3010559082031 -218.289306640625 202.0543212890625 -221.8019256591797 199.5953216552734 C -225.0370025634766 197.3306427001953 -227.1886291503906 194.1103363037109 -228.1970977783203 190.0238647460938 C -229.9811553955078 182.7945709228516 -227.647705078125 174.7854461669922 -226.0979766845703 170.6547088623047 C -225.0589294433594 167.8852081298828 -223.5301971435547 164.6360778808594 -221.8163452148438 162.1208953857422 C -223.9180297851563 161.0828552246094 -225.8309631347656 159.9194183349609 -227.5326232910156 158.6426849365234 C -230.1732330322266 156.6615142822266 -232.3310699462891 154.3907165527344 -233.9462280273438 151.8933410644531 C -237.0198211669922 147.1409454345703 -238.0956268310547 141.6452484130859 -237.057373046875 136.0003662109375 C -236.4128265380859 132.4961700439453 -234.9896545410156 129.0813903808594 -232.8273773193359 125.850944519043 C -230.6962738037109 122.6670913696289 -227.9501342773438 119.8174667358398 -224.6652069091797 117.381217956543 C -221.2834777832031 114.8731689453125 -217.4676513671875 112.9092407226563 -213.3237762451172 111.5439682006836 C -209.3891448974609 110.2476654052734 -205.2464294433594 109.5239639282227 -200.9882354736328 109.3875274658203 C -201.5660247802734 105.4143829345703 -201.5774230957031 101.7226409912109 -201.0194702148438 98.37409210205078 C -200.3267211914063 94.21656799316406 -198.7698059082031 90.60531616210938 -196.3919219970703 87.64069366455078 C -194.2084503173828 84.91841888427734 -191.4062347412109 82.8231201171875 -188.0631256103516 81.41301727294922 C -184.9722290039063 80.10929107666016 -181.5615997314453 79.4482421875 -177.9259796142578 79.4482421875 C -173.18212890625 79.4482421875 -168.3667449951172 80.5889892578125 -164.0004272460938 82.7471923828125 C -160.3903503417969 84.53159332275391 -157.2186584472656 86.95832824707031 -154.6892547607422 89.85357666015625 C -152.9288330078125 88.66948699951172 -151.0804290771484 87.72048950195313 -149.1666564941406 87.01984405517578 C -146.4936065673828 86.04119110107422 -143.6918334960938 85.54499053955078 -140.8390960693359 85.54499053955078 C -136.6024780273438 85.54499053955078 -132.2429504394531 86.66071319580078 -128.2318572998047 88.77159118652344 C -124.4737548828125 90.74929046630859 -121.0953521728516 93.54749298095703 -118.4618759155273 96.86366271972656 C -114.7711563110352 101.5111999511719 -112.8336944580078 106.7888259887695 -112.8845596313477 111.8254547119141 C -112.7826690673828 111.8242797851563 -112.6808624267578 111.8236923217773 -112.5792999267578 111.8236923217773 C -108.6735763549805 111.8236923217773 -104.9076766967773 112.6759643554688 -101.3861770629883 114.3568649291992 C -98.12963104248047 115.9112930297852 -95.13347625732422 118.1478652954102 -92.48090362548828 121.0044937133789 C -87.56482696533203 126.2986907958984 -84.07155609130859 133.4882202148438 -82.64457702636719 141.2486419677734 C -81.9769287109375 144.8797149658203 -81.78492736816406 148.5025939941406 -82.07395172119141 152.0166473388672 C -82.37750244140625 155.7072906494141 -83.20568084716797 159.1810913085938 -84.53547668457031 162.3416137695313 C -86.85221862792969 167.8477935791016 -90.612060546875 172.2065887451172 -95.54196166992188 175.1540374755859 C -92.33674621582031 178.2682647705078 -89.96302795410156 182.1579132080078 -88.57890319824219 186.6109161376953 C -86.84950256347656 192.1747589111328 -86.81375122070313 198.2917633056641 -88.47824859619141 203.8351135253906 C -89.93922424316406 208.7007598876953 -92.60947418212891 212.8435974121094 -96.20030212402344 215.8157196044922 C -98.13180541992188 217.4144439697266 -100.3064804077148 218.6526641845703 -102.6639251708984 219.4959869384766 C -105.1355056762695 220.3801727294922 -107.8073501586914 220.8285369873047 -110.605224609375 220.8286590576172 C -111.5704650878906 220.8287048339844 -112.5582580566406 220.7748870849609 -113.5593109130859 220.6680755615234 C -115.9809494018555 225.2041473388672 -119.1009292602539 228.7178955078125 -122.8552551269531 231.1318664550781 C -124.8025283813477 232.3839416503906 -126.9164810180664 233.330810546875 -129.1383514404297 233.9461364746094 C -131.1894989013672 234.51416015625 -133.3394012451172 234.8021850585938 -135.5283813476563 234.8021850585938 C -138.0868988037109 234.8021850585938 -140.6576538085938 234.4149169921875 -143.1692504882813 233.651123046875 C -145.5215301513672 232.9357604980469 -147.7087707519531 231.9279937744141 -149.6702728271484 230.6557922363281 C -151.7210845947266 229.3256530761719 -153.3749389648438 227.7983093261719 -154.5603332519531 226.1758117675781 C -157.206787109375 228.9362487792969 -160.085693359375 231.1696319580078 -163.1584777832031 232.8416595458984 C -165.2383575439453 233.9734191894531 -167.3988800048828 234.8373107910156 -169.580078125 235.4093170166016 C -171.7111968994141 235.9681854248047 -173.8722076416016 236.2515869140625 -176.0030517578125 236.2516479492188 L -176.0030212402344 236.2516479492188 Z"/></g><g class="v" transform="translate(167.666 113.879)"><ellipse class="z" cx="22.29" cy="29.48" rx="22.29" ry="29.48"/><ellipse class="c" cx="22.29" cy="29.48" rx="21.79" ry="28.98"/></g><g class="w" transform="translate(215.61 121.951)"><path class="z" d="M 17.3175106048584 50.38721084594727 C 15.06370067596436 50.38721084594727 12.91756057739258 49.7018928527832 10.93870067596436 48.35028076171875 C 9.070231437683105 47.07407379150391 7.399500846862793 45.24469375610352 5.972940921783447 42.9129638671875 C 3.204370975494385 38.38770294189453 1.616521000862122 32.33135223388672 1.616521000862122 26.29681205749512 C 1.616521000862122 20.28470230102539 3.20366096496582 14.28553199768066 5.97097110748291 9.837552070617676 C 7.394471168518066 7.549522399902344 9.064460754394531 5.755562305450439 10.93456077575684 4.505492210388184 C 12.91166114807129 3.183892488479614 15.05919075012207 2.513792514801025 17.3175106048584 2.513792514801025 C 19.60265159606934 2.513792514801025 21.84493064880371 3.219552278518677 23.9820613861084 4.611472606658936 C 26.0527515411377 5.960122585296631 27.92863082885742 7.884092330932617 29.5576114654541 10.32996273040771 C 31.18792152404785 12.77783203125 32.47296142578125 15.60067272186279 33.37704086303711 18.7200927734375 C 34.3138427734375 21.95236206054688 34.7888298034668 25.33130264282227 34.7888298034668 28.7630615234375 C 34.7888298034668 35.37697219848633 32.99344253540039 40.93363189697266 29.59677124023438 44.83232116699219 C 28.02790069580078 46.63306427001953 26.16174125671387 48.02688217163086 24.05013084411621 48.97505187988281 C 21.96329116821289 49.91209411621094 19.6981201171875 50.38721084594727 17.3175106048584 50.38721084594727 Z"/><path class="aa" d="M 17.3175106048584 3.0137939453125 C 15.15987014770508 3.0137939453125 13.10582160949707 3.655532836914063 11.21242141723633 4.921173095703125 C 9.401830673217773 6.131462097167969 7.781190872192383 7.874443054199219 6.395511627197266 10.10168075561523 C 3.676139831542969 14.47258377075195 2.116512298583984 20.37548065185547 2.116512298583984 26.29681205749512 C 2.116512298583984 32.24186325073242 3.677581787109375 38.20310211181641 6.399440765380859 42.65201187133789 C 7.788881301879883 44.92306137084961 9.410991668701172 46.70132446289063 11.22071075439453 47.93740081787109 C 13.11493110656738 49.231201171875 15.16619110107422 49.88721084594727 17.3175106048584 49.88721084594727 C 19.62704086303711 49.88721084594727 21.82331085205078 49.42685317993164 23.84531021118164 48.5189208984375 C 25.89050102233887 47.60057067871094 27.69873046875 46.24972152709961 29.21977043151855 44.50387191772461 C 32.53597259521484 40.69754028320313 34.28882217407227 35.25446319580078 34.28882217407227 28.7630615234375 C 34.28882217407227 25.3784122467041 33.82048034667969 22.04630279541016 32.89680099487305 18.85927200317383 C 32.00693130493164 15.78891372680664 30.74345016479492 13.01248168945313 29.14145088195801 10.60712051391602 C 27.55033111572266 8.218093872070313 25.72265243530273 6.341823577880859 23.70918083190918 5.030452728271484 C 21.65460205078125 3.692291259765625 19.50413131713867 3.0137939453125 17.3175106048584 3.0137939453125 M 17.3175106048584 2.0137939453125 C 27.10574150085449 2.0137939453125 35.28882217407227 14.53471374511719 35.28882217407227 28.7630615234375 C 35.28882217407227 42.99141311645508 27.10574150085449 50.88721084594727 17.3175106048584 50.88721084594727 C 7.529281616210938 50.88721084594727 1.116512298583984 38.51517105102539 1.116512298583984 26.29681205749512 C 1.116512298583984 14.07846069335938 7.529281616210938 2.0137939453125 17.3175106048584 2.0137939453125 Z"/></g><g class="x" transform="translate(188.046 133.573)"><ellipse class="z" cx="7.409" cy="11.723" rx="7.409" ry="11.723"/><ellipse class="c" cx="7.409" cy="11.723" rx="6.909" ry="11.223"/></g><g class="v" transform="translate(195.13 142.716) rotate(-2)"><ellipse class="z" cx="2.157" cy="3.095" rx="2.157" ry="3.095"/><ellipse class="c" cx="2.157" cy="3.095" rx="1.657" ry="2.595"/></g><g class="x" transform="translate(230.626 141.325)"><ellipse class="z" cx="5.69" cy="8.285" rx="5.69" ry="8.285"/><ellipse class="c" cx="5.69" cy="8.285" rx="5.19" ry="7.785"/></g><g class="v" transform="matrix(0.999, -0.035, 0.035, 0.999, 236.288, 147.575)"><ellipse class="z" cx="1.657" cy="2.595" rx="1.657" ry="2.595"/><ellipse class="c" cx="1.657" cy="2.595" rx="1.157" ry="2.095"/></g><path class="r" d="M-177.9,156.386s3.643-8.014,9.761-9.342a16.577,16.577,0,0,1,14.712,4.03c2.957,3.343,16.168,23.134,13.319,35.913C-144.857,188.542-177.9,156.386-177.9,156.386Z" transform="translate(378.785 28.571)"/><path class="h" d="M-159.139,170.112s-1.064,15.358-.549,17.342c-2.18,1.1-27.658-3.785-17.892-34.094C-163.323,167.281-159.139,170.112-159.139,170.112Z" transform="translate(377.857 31.575)"/><path class="s" d="M-176.213,158.656c2.042,1.878,3.759,3.927,5.865,5.978,2.846,2.77,5.527,5.076,5.527,5.076V181.44S-180.048,175.124-176.213,158.656Z" transform="translate(379.252 33.82)"/><path class="y" d="M175.648,129.68c-1.723-7.953-7.821-15.642-11-17.5" transform="translate(0 -2)"/><path class="y" d="M9.065,11.408C7.791,5.53,2.351,1.371,0,0" transform="translate(218.272 116.102) rotate(13)"/><path class="y" d="M182.541,121.992c-.265-5.965-4.109-15.774-5.965-16.967" transform="translate(0 -2)"/><path class="y" d="M4.966,11.128C3.535,6.7,1.371.882,0,0" transform="translate(228.052 115.931) rotate(13)"/><path class="y" d="M191.394,120.931s.426-12.725-.634-15.111" transform="translate(1 -2)"/><path class="y" d="M.469,11.166S-.7,2.467.118.1" transform="translate(237.851 117.028) rotate(13)"/><path class="y" d="M199.376,121.992s.928-11,1.591-12.593" transform="translate(2 -2)"/><path class="y" d="M0,9.305S.686,1.175,1.175,0" transform="translate(243.18 120.203) rotate(13)"/></g><rect class="c" width="360" height="374"/></g></svg>